<svg width="112" height="126" viewBox="0 0 112 126" fill="none" xmlns="http://www.w3.org/2000/svg">
<path d="M56.7051 25.75L20.7436 84.875M56.7051 25.75L92.6667 84.875M56.7051 25.75L111 31.25M56.7051 25.75L1 31.25M56.7051 25.75V1M20.7436 84.875H92.6667M20.7436 84.875L1 31.25M20.7436 84.875L1 90.375M20.7436 84.875L56.7051 124.75M92.6667 84.875L111 31.25M92.6667 84.875L56.7051 124.75M92.6667 84.875L111 90.375M111 31.25L56.7051 1M111 31.25V90.375M1 31.25L56.7051 1M1 31.25V90.375M1 90.375L56.7051 124.75M56.7051 124.75L111 90.375M49.6538 56.6875L56.7051 45V60.125V75.25H48.9487H64.4615" stroke="black" stroke-width="1.5"/>
</svg>
